<?xml version="1.0" standalone="no"?>
<!DOCTYPE svg PUBLIC "-//W3C//DTD SVG 20010904//EN"
 "http://www.w3.org/TR/2001/REC-SVG-20010904/DTD/svg10.dtd">
<svg version="1.0" xmlns="http://www.w3.org/2000/svg"
 width="512.000000pt" height="512.000000pt" viewBox="0 0 512.000000 512.000000"
 preserveAspectRatio="xMidYMid meet">

<g transform="translate(0.000000,512.000000) scale(0.100000,-0.100000)"
fill="#000000" stroke="none">
<path d="M975 4228 c-46 -25 -45 -16 -45 -544 0 -276 3 -510 6 -519 15 -39 53
-45 299 -45 246 0 284 6 299 45 3 9 6 95 6 191 0 196 8 233 57 253 21 9 108
11 317 9 l288 -3 24 -28 24 -28 0 -1199 0 -1199 -24 -28 c-24 -28 -24 -28
-181 -33 -212 -7 -195 20 -195 -309 1 -276 2 -281 54 -301 18 -6 250 -10 672
-10 l645 0 24 24 c34 34 37 64 33 318 -3 224 -3 227 -27 252 -24 25 -28 26
-150 26 -69 0 -143 5 -163 11 -73 20 -68 -66 -68 1251 0 933 3 1188 13 1208
23 46 66 51 364 48 353 -4 321 21 325 -250 l3 -200 28 -24 28 -24 254 0 254 0
28 24 28 24 0 512 0 512 -28 24 -28 24 -1572 0 c-1119 -1 -1578 -4 -1592 -12z"/>
</g>
</svg>
